<?xml version="1.0" encoding="utf-8"?>
<!-- Generator: Adobe Illustrator 25.2.3, SVG Export Plug-In . SVG Version: 6.00 Build 0)  -->
<svg version="1.1" id="Layer_1" xmlns="http://www.w3.org/2000/svg" xmlns:xlink="http://www.w3.org/1999/xlink" x="0px" y="0px"
	 viewBox="0 0 100 71" style="enable-background:new 0 0 100 71;" xml:space="preserve">
<style type="text/css">
	.st0{fill:#010101;}
</style>
<path class="st0" d="M84.3,19.2c-4.8-4.8-11.1-7.4-17.9-7.4c-6.2,0-12,2.2-16.6,6.2c-4.6-4-10.4-6.2-16.6-6.2
	c-6.8,0-13.1,2.6-17.9,7.4c-0.3,0.3-0.5,0.8-0.5,1.3v36.8c0,0.7,0.4,1.4,1.1,1.7c0.7,0.3,1.5,0.1,2-0.4c4.1-4.1,9.5-6.3,15.3-6.3
	s11.2,2.2,15.3,6.3c0,0,0,0,0,0c0,0,0.1,0.1,0.1,0.1c0,0,0,0,0.1,0.1c0,0,0,0,0.1,0.1c0,0,0.1,0,0.1,0.1c0,0,0,0,0.1,0
	c0,0,0.1,0,0.1,0c0,0,0.1,0,0.1,0c0,0,0.1,0,0.1,0c0,0,0.1,0,0.1,0c0,0,0.1,0,0.1,0c0,0,0.1,0,0.1,0c0,0,0.1,0,0.1,0c0,0,0,0,0.1,0
	c0.1,0,0.2,0,0.4,0c0,0,0,0,0.1,0c0,0,0.1,0,0.1,0c0,0,0.1,0,0.1,0c0,0,0.1,0,0.1,0c0,0,0.1,0,0.1,0c0,0,0.1,0,0.1,0
	c0,0,0.1,0,0.1,0c0,0,0.1,0,0.1,0c0,0,0,0,0.1,0c0,0,0.1,0,0.1-0.1c0,0,0,0,0.1-0.1c0,0,0,0,0.1-0.1c0,0,0.1-0.1,0.1-0.1
	c0,0,0,0,0,0c4.1-4.1,9.5-6.3,15.3-6.3s11.2,2.2,15.3,6.3c0.4,0.4,0.8,0.5,1.3,0.5c0.2,0,0.5,0,0.7-0.1c0.7-0.3,1.1-1,1.1-1.7V20.5
	C84.8,20.1,84.6,19.6,84.3,19.2z M18.5,53.4V21.3c4-3.7,9.2-5.8,14.7-5.8c5.5,0,10.7,2.1,14.7,5.8v32.1c-4.3-3.1-9.4-4.7-14.7-4.7
	C27.9,48.7,22.8,50.3,18.5,53.4z M81.1,53.4c-4.3-3.1-9.4-4.7-14.7-4.7c-5.4,0-10.5,1.7-14.7,4.7V21.3c4-3.8,9.2-5.8,14.7-5.8
	c5.5,0,10.7,2.1,14.7,5.8V53.4z"/>
</svg>
