<?xml version="1.0" encoding="utf-8"?>
<!-- Generator: Adobe Illustrator 25.3.1, SVG Export Plug-In . SVG Version: 6.00 Build 0)  -->
<svg version="1.1" id="Layer_1" xmlns="http://www.w3.org/2000/svg" xmlns:xlink="http://www.w3.org/1999/xlink" x="0px" y="0px"
	 viewBox="0 0 100 71" style="enable-background:new 0 0 100 71;" xml:space="preserve">
<g>
	<path d="M62.9,4.4c-1.8-0.7-3.6-1.3-5.5-1.7l-4.5,8.5c-2-0.2-3.9-0.2-5.9,0l-4.5-8.5C38.8,3.5,35.2,5,32,7.1l2.8,9.2
		c-1.5,1.2-2.9,2.6-4.2,4.2l-9.2-2.8c-1,1.6-1.9,3.3-2.6,5.1c-0.7,1.8-1.3,3.6-1.7,5.5l8.5,4.5c-0.2,2-0.2,3.9,0,5.9L17.2,43
		c0.9,3.7,2.3,7.3,4.4,10.5l9.2-2.8c1.2,1.5,2.6,2.9,4.2,4.2L32.1,64c1.6,1,3.3,1.9,5.1,2.6c1.8,0.7,3.6,1.3,5.4,1.7l4.5-8.5
		c2,0.2,3.9,0.2,5.9,0l4.5,8.5C61.2,67.5,64.7,66,68,64l-2.8-9.2c1.5-1.2,2.9-2.6,4.2-4.2l9.2,2.8c1-1.6,1.9-3.3,2.6-5.1
		c0.7-1.8,1.3-3.6,1.7-5.5l-8.5-4.5c0.2-2,0.2-3.9,0-5.9l8.5-4.5c-0.9-3.7-2.3-7.3-4.4-10.5l-9.2,2.8c-1.2-1.5-2.6-2.9-4.2-4.1
		L67.9,7C66.3,6,64.6,5.1,62.9,4.4L62.9,4.4z M54.9,23.6c6.5,2.7,9.6,10.2,6.9,16.7c-2.7,6.5-10.2,9.7-16.7,7
		c-6.5-2.7-9.7-10.2-7-16.7C40.9,24.1,48.4,20.9,54.9,23.6z"/>
</g>
</svg>
