<?xml version="1.0" encoding="utf-8"?>
<!-- Generator: Adobe Illustrator 25.2.3, SVG Export Plug-In . SVG Version: 6.00 Build 0)  -->
<svg version="1.1" id="Layer_1" xmlns="http://www.w3.org/2000/svg" xmlns:xlink="http://www.w3.org/1999/xlink" x="0px" y="0px"
	 viewBox="0 0 100 71" style="enable-background:new 0 0 100 71;" xml:space="preserve">
<style type="text/css">
	.st0{fill:none;stroke:#000000;stroke-miterlimit:10;}
</style>
<g>
	<line class="st0" x1="17.66" y1="11.08" x2="17.66" y2="58.51"/>
	<path class="st0" d="M83.83,57.51"/>
	<path class="st0" d="M17.62,57.51"/>
	<path class="st0" d="M82.83,57.51"/>
	<path class="st0" d="M16.62,57.51"/>
	<path class="st0" d="M83.83,57.51"/>
	<path class="st0" d="M17.62,57.51"/>
	<line class="st0" x1="17.17" y1="58.02" x2="83.38" y2="58.02"/>
	<path class="st0" d="M33.2,55.99"/>
	<g>
		<line class="st0" x1="28.12" y1="41.37" x2="43.01" y2="27.7"/>
		<line class="st0" x1="42.39" y1="27.78" x2="59.89" y2="37.89"/>
		<line class="st0" x1="59.3" y1="37.96" x2="74.19" y2="24.29"/>
	</g>
	<g>
		<line class="st0" x1="27.51" y1="29.12" x2="42.4" y2="15.46"/>
		<line class="st0" x1="41.78" y1="15.54" x2="59.28" y2="25.65"/>
		<line class="st0" x1="58.7" y1="25.71" x2="73.58" y2="12.05"/>
	</g>
	<g>
		<line class="st0" x1="28.93" y1="53.23" x2="43.81" y2="39.57"/>
		<line class="st0" x1="43.2" y1="39.65" x2="60.7" y2="49.76"/>
		<line class="st0" x1="60.11" y1="49.82" x2="75" y2="36.16"/>
	</g>
</g>
</svg>
